<svg xmlns="http://www.w3.org/2000/svg" viewBox="0 0 600 400" width="600" height="400">
  <defs>
    <linearGradient id="bg" x1="0%" y1="0%" x2="100%" y2="100%">
      <stop offset="0%" style="stop-color:#3d2b1f"/>
      <stop offset="100%" style="stop-color:#5c3d2e"/>
    </linearGradient>
  </defs>
  <rect width="600" height="400" fill="url(#bg)"/>
  <!-- Sofa silhouette with capitonê style -->
  <rect x="80" y="220" width="440" height="100" rx="14" fill="#7a5c45"/>
  <!-- Capitonê buttons -->
  <circle cx="200" cy="255" r="8" fill="#5c4033"/>
  <circle cx="300" cy="255" r="8" fill="#5c4033"/>
  <circle cx="400" cy="255" r="8" fill="#5c4033"/>
  <circle cx="200" cy="290" r="8" fill="#5c4033"/>
  <circle cx="300" cy="290" r="8" fill="#5c4033"/>
  <circle cx="400" cy="290" r="8" fill="#5c4033"/>
  <rect x="55" y="170" width="490" height="65" rx="14" fill="#8a6a50"/>
  <rect x="55" y="158" width="78" height="170" rx="14" fill="#7a5c45"/>
  <rect x="467" y="158" width="78" height="170" rx="14" fill="#7a5c45"/>
  <!-- Pés torneados -->
  <ellipse cx="110" cy="328" rx="12" ry="6" fill="#3a2519"/>
  <rect x="104" y="318" width="12" height="12" fill="#4a3520"/>
  <ellipse cx="490" cy="328" rx="12" ry="6" fill="#3a2519"/>
  <rect x="484" y="318" width="12" height="12" fill="#4a3520"/>
  <!-- Label -->
  <text x="300" y="100" font-family="Georgia, serif" font-size="52" font-weight="bold" fill="#d9b154" text-anchor="middle">ROMA</text>
  <text x="300" y="140" font-family="Georgia, serif" font-size="18" fill="#c8a882" text-anchor="middle">Sofá</text>
</svg>